<svg xmlns="http://www.w3.org/2000/svg" width="99.185" height="105.668" viewBox="0 0 99.185 105.668">
  <g id="Group-2" transform="translate(5.336 5.897)">
    <path id="stroke" d="M.664,25.71,44.256.542,87.849,25.71V93.282H.664Z" fill="#fff" fill-rule="evenodd"/>
    <path id="bg" d="M.664,26.2,44.256,1.031,87.849,26.2V93.771H.664Z" fill="none" stroke="#fff" stroke-width="12" fill-rule="evenodd"/>
    <g id="assets_logo_primary" data-name="assets/logo/primary">
      <path id="Fill-1" d="M33.419,57.522l10.571-6.1L0,26.022V51.1a25.7,25.7,0,0,1,12.206-2.7c10.355,0,16.908,4.4,21.214,9.121" fill="#4d4dae" fill-rule="evenodd"/>
      <path id="Fill-4" d="M14.011,92.53c4.406,0,7.728-1.3,7.728-4.622,0-3.395-4.261-4.695-9.534-5.995C8.28,80.907,3.775,79.9,0,78V84.44A16.539,16.539,0,0,0,14.011,92.53" fill="#4d4dae" fill-rule="evenodd"/>
      <path id="Fill-6" d="M87.98,76.816V26.022l-43.99,25.4Z" fill="#52595f" fill-rule="evenodd"/>
      <path id="Fill-9" d="M87.979,26.022,43.99.624,0,26.022l43.99,25.4Z" fill="#00008b" fill-rule="evenodd"/>
      <path id="Fill-12" d="M43.99,51.418l-10.571,6.1L22.088,64.064c-2.9-2.3-6.577-3.963-9.955-3.963-4.117,0-6.212,1.371-6.212,3.9,0,2.925,2.865,4.32,6.835,5.45.833.237,1.712.464,2.626.689,8.74,2.094,20.44,4.767,20.44,16.756a16.108,16.108,0,0,1-1.691,7.314H87.979V76.816Z" fill="#373b3f" fill-rule="evenodd"/>
      <path id="Fill-14" d="M15.383,70.14c-.914-.225-1.793-.452-2.626-.689-3.97-1.13-6.835-2.525-6.835-5.45,0-2.529,2.095-3.9,6.212-3.9,3.377,0,7.059,1.661,9.955,3.963l11.331-6.543C29.113,52.8,22.56,48.4,12.205,48.4A25.685,25.685,0,0,0,0,51.1V78c3.775,1.9,8.28,2.91,12.205,3.916,5.272,1.3,9.534,2.6,9.534,6,0,3.323-3.323,4.622-7.728,4.622A16.537,16.537,0,0,1,0,84.44V94.21H34.132A16.108,16.108,0,0,0,35.823,86.9c0-11.989-11.7-14.662-20.44-16.756" fill="#fff" fill-rule="evenodd"/>
    </g>
  </g>
</svg>
